<?xml version="1.0" encoding="UTF-8"?>
<svg version="1.1" xmlns="http://www.w3.org/2000/svg" width="512" height="512">
<path d="M0 0 C12.54240821 10.52802144 17.31997883 23.7365998 22.203125 38.7890625 C22.88783456 40.85352157 23.57408895 42.91746879 24.26171875 44.98095703 C26.17016041 50.72499697 28.05483215 56.47659248 29.93487549 62.22998047 C31.78610119 67.88626918 33.65208179 73.53768482 35.5167141 79.18956375 C39.27877597 90.59552672 43.02454493 102.00678679 46.76307106 113.42048264 C53.56288152 134.17934851 60.40641166 154.92369841 67.25530052 175.66641617 C69.68104191 183.01342346 72.10499842 190.3610177 74.52783203 197.70898438 C75.03325625 199.24177851 75.03325625 199.24177851 75.54889107 200.80553818 C76.88739281 204.86482586 78.22588497 208.92411671 79.56428909 212.98343658 C83.08578599 223.66338327 86.61092955 234.34208484 90.15046692 245.0160675 C91.99647883 250.58320048 93.83826428 256.15171574 95.67604065 261.72157288 C96.6805794 264.76527498 97.68841277 267.80781718 98.70129395 270.84875488 C99.77887597 274.08451259 100.84755107 277.32307975 101.9140625 280.5625 C102.36943893 281.91796432 102.36943893 281.91796432 102.83401489 283.30081177 C107.61534494 297.92755293 109.22916033 312.69184194 102.140625 326.9140625 C100.3671661 329.81515423 98.38279979 332.36243502 96.140625 334.9140625 C95.63917969 335.51992188 95.13773437 336.12578125 94.62109375 336.75 C89.24381224 342.74220178 80.3471056 348.35647905 72.17041016 349.09106445 C50.9899612 349.6703075 37.31012402 343.29931621 19.140625 332.9140625 C18.26841309 332.4180957 17.39620117 331.92212891 16.49755859 331.41113281 C12.19425757 328.96404524 7.89789036 326.50517569 3.60546875 324.0390625 C-5.44122722 318.85165379 -14.55692775 313.78620308 -23.66113281 308.70068359 C-41.70173208 298.62273661 -59.71076894 288.49061652 -77.69335938 278.30957031 C-84.41253546 274.50604497 -91.13480511 270.70804293 -97.859375 266.9140625 C-98.97924805 266.28161621 -100.09912109 265.64916992 -101.25292969 264.99755859 C-104.70313096 263.04959619 -108.15614883 261.10665774 -111.609375 259.1640625 C-112.68751465 258.55506104 -113.7656543 257.94605957 -114.87646484 257.31860352 C-116.3762085 256.47640259 -116.3762085 256.47640259 -117.90625 255.6171875 C-118.79151367 255.11864258 -119.67677734 254.62009766 -120.58886719 254.10644531 C-122.9204967 252.80417886 -122.9204967 252.80417886 -125.859375 251.9140625 C-126.27160812 253.17407829 -126.27160812 253.17407829 -126.69216919 254.45954895 C-129.29904232 262.42111767 -131.91631677 270.37917658 -134.54498482 278.33357716 C-135.89566745 282.42197171 -137.24245903 286.51155898 -138.58007812 290.60424805 C-139.87395447 294.56259576 -141.17841618 298.51731544 -142.48992538 302.46985435 C-142.98553662 303.96950426 -143.47748461 305.47037053 -143.96548843 306.9725132 C-149.16309711 322.95450331 -155.2884402 337.14825778 -170.859375 345.4140625 C-182.09471778 350.50665065 -194.00789357 351.53006194 -205.859375 347.9140625 C-219.09064073 342.55651247 -228.24370531 334.71777287 -233.92578125 321.41796875 C-238.76858485 307.54462318 -236.51468045 295.24782642 -231.96459961 281.68383789 C-231.67916605 280.81719954 -231.39373249 279.95056118 -231.09964943 279.05766106 C-230.15925001 276.20713516 -229.21055406 273.35944661 -228.26171875 270.51171875 C-227.59275747 268.48979419 -226.92430604 266.46770088 -226.2563324 264.44544983 C-224.47712975 259.06392953 -222.69071146 253.6848308 -220.9028244 248.30619049 C-219.05481685 242.74248418 -217.21362487 237.17652315 -215.37158203 231.61083984 C-207.36777899 207.4371883 -199.33228739 183.27400046 -191.2565918 159.12426758 C-187.43313162 147.68388693 -183.66738422 136.22622681 -179.94833374 124.75149536 C-177.26274033 116.46885605 -174.56238123 108.1910326 -171.859375 99.9140625 C-171.45511292 98.67533386 -171.05085083 97.43660522 -170.63433838 96.16033936 C-168.11276461 88.43712858 -165.58082921 80.71742328 -163.03292656 73.0028553 C-161.87010344 69.48149538 -160.71080172 65.95907878 -159.56091309 62.43347168 C-158.4726231 59.0972982 -157.37372287 55.76479239 -156.26740074 52.43455696 C-155.67004521 50.62794442 -155.08317506 48.8178751 -154.4967804 47.00767517 C-146.28135376 22.4196005 -131.24761056 1.83102902 -107.86767578 -10.10253906 C-73.75361729 -26.71360616 -30.80968489 -22.47591767 0 0 Z M-64.859375 66.9140625 C-73.88871195 93.27211622 -82.81801473 119.66299837 -91.64505386 146.08942795 C-92.36098944 148.23139265 -93.07808419 150.37296606 -93.79550171 152.51443481 C-94.93094905 155.90422854 -96.06333394 159.29502981 -97.19330406 162.68665314 C-97.81573843 164.55270885 -98.4410208 166.41781383 -99.06636047 168.28289795 C-99.43569199 169.39392883 -99.8050235 170.50495972 -100.18554688 171.6496582 C-100.51035034 172.62264359 -100.83515381 173.59562897 -101.1697998 174.59809875 C-101.95449758 176.83079452 -101.95449758 176.83079452 -101.859375 178.9140625 C-100.62703125 179.21699219 -99.3946875 179.51992188 -98.125 179.83203125 C-75.11220447 185.60270998 -56.0008369 196.56443146 -35.66796875 208.515625 C-28.45506247 212.75013831 -21.16956656 216.85045602 -13.859375 220.9140625 C-12.70392597 217.4477154 -13.0334414 216.65984589 -14.17602539 213.29882812 C-14.49185074 212.35499268 -14.80767609 211.41115723 -15.1330719 210.4387207 C-15.48747849 209.409646 -15.84188507 208.38057129 -16.20703125 207.3203125 C-16.56969589 206.24354248 -16.93236053 205.16677246 -17.30601501 204.05737305 C-18.0916286 201.72792858 -18.88131083 199.39985325 -19.67456055 197.07299805 C-21.35901003 192.13174841 -23.02434366 187.18412918 -24.69052124 182.23669434 C-25.53771283 179.72147372 -26.38588437 177.20658297 -27.23501587 174.6920166 C-30.85691081 163.95824958 -34.37660452 153.19360685 -37.859375 142.4140625 C-46.02306457 117.1912516 -54.44709316 92.05482369 -62.859375 66.9140625 C-63.519375 66.9140625 -64.179375 66.9140625 -64.859375 66.9140625 Z " fill="#FAF057" transform="translate(320.859375,91.0859375)"/>
<path d="M0 0 C1.56549779 1.3227367 3.06035468 2.7289474 4.52734375 4.16015625 C2.52734375 5.16015625 2.52734375 5.16015625 -0.5703125 4.1640625 C-1.1986499 3.93436768 -1.8269873 3.70467285 -2.47436523 3.46801758 C-12.25725748 -0.07032741 -23.16916491 -2.43596723 -33.296875 1.1640625 C-50.40878119 11.36148028 -54.41724532 37.86360916 -59.98352242 55.30958462 C-62.91004702 64.47059887 -65.92877749 73.59879417 -68.98046875 82.71875 C-69.76810053 85.07641843 -70.55537277 87.43420675 -71.34264278 89.791996 C-71.88832936 91.4261764 -72.43413014 93.06031867 -72.98004246 94.69442368 C-75.74443534 102.96999362 -78.49846652 111.24900083 -81.25200081 119.52818871 C-82.89505752 124.46761641 -84.53952055 129.40657607 -86.18386173 134.34557629 C-87.58175388 138.5445834 -88.97904957 142.74378747 -90.37524414 146.94335938 C-91.76235892 151.11551942 -93.15091412 155.28719746 -94.5404911 159.45853806 C-95.06213105 161.02529839 -95.58324493 162.59223398 -96.10381126 164.15935135 C-96.81937318 166.31323977 -97.5367757 168.4665065 -98.25463867 170.61962891 C-98.66034592 171.83897125 -99.06605316 173.0583136 -99.48405457 174.31460571 C-100.47265625 177.16015625 -100.47265625 177.16015625 -101.47265625 179.16015625 C-102.363479 179.1444458 -103.25430176 179.12873535 -104.17211914 179.11254883 C-107.5549937 179.06067298 -110.93743108 179.02345105 -114.32055664 178.99536133 C-115.77016979 178.98049924 -117.2197399 178.96020358 -118.66918945 178.93383789 C-145.09708484 178.46600635 -169.49981357 186.76653996 -188.80078125 205.296875 C-192.96660893 209.50311492 -196.39176774 214.17936099 -199.84765625 218.97265625 C-200.47542969 219.83052734 -201.10320312 220.68839844 -201.75 221.57226562 C-204.85559637 225.71445043 -204.85559637 225.71445043 -207.47265625 230.16015625 C-206.91578125 229.82242188 -206.35890625 229.4846875 -205.78515625 229.13671875 C-195.39393846 223.06347322 -185.7417565 221.68624962 -173.84765625 224.09765625 C-165.41654379 226.44801752 -158.030277 230.85627522 -150.47265625 235.16015625 C-148.9422168 236.02084717 -148.9422168 236.02084717 -147.38085938 236.89892578 C-144.07036648 238.76438559 -140.76992522 240.64643174 -137.47265625 242.53515625 C-136.40305664 243.14206299 -135.33345703 243.74896973 -134.23144531 244.37426758 C-133.23854492 244.95072021 -132.24564453 245.52717285 -131.22265625 246.12109375 C-130.330625 246.63462402 -129.43859375 247.1481543 -128.51953125 247.67724609 C-126.47265625 249.16015625 -126.47265625 249.16015625 -125.47265625 252.16015625 C-126.18519592 255.06640625 -126.18519592 255.06640625 -127.37524414 258.66015625 C-127.58979248 259.31592148 -127.80434082 259.97168671 -128.02539062 260.64732361 C-128.7395595 262.82140604 -129.46693035 264.9907979 -130.1953125 267.16015625 C-130.69851656 268.67635349 -131.20123042 270.19271349 -131.70347595 271.70922852 C-132.7611312 274.89557331 -133.825442 278.07959908 -134.89428711 281.26220703 C-136.25345324 285.31134321 -137.59514127 289.36601115 -138.93157291 293.42269897 C-139.96817702 296.56194967 -141.0148083 299.6977899 -142.06426811 302.83276367 C-142.56212744 304.32420771 -143.05685591 305.81670109 -143.54820442 307.31030273 C-148.79879281 323.23509808 -154.94091694 337.41515839 -170.47265625 345.66015625 C-181.70799903 350.7527444 -193.62117482 351.77615569 -205.47265625 348.16015625 C-218.70392198 342.80260622 -227.85698656 334.96386662 -233.5390625 321.6640625 C-238.3818661 307.79071693 -236.1279617 295.49392017 -231.57788086 281.92993164 C-231.2924473 281.06329329 -231.00701374 280.19665493 -230.71293068 279.30375481 C-229.77253126 276.45322891 -228.82383531 273.60554036 -227.875 270.7578125 C-227.20603872 268.73588794 -226.53758729 266.71379463 -225.86961365 264.69154358 C-224.090411 259.31002328 -222.30399271 253.93092455 -220.51610565 248.55228424 C-218.6680981 242.98857793 -216.82690612 237.4226169 -214.98486328 231.85693359 C-206.98106024 207.68328205 -198.94556864 183.52009421 -190.86987305 159.37036133 C-187.04641287 147.92998068 -183.28066547 136.47232056 -179.56161499 124.99758911 C-176.87602158 116.7149498 -174.17566248 108.43712635 -171.47265625 100.16015625 C-171.06839417 98.92142761 -170.66413208 97.68269897 -170.24761963 96.40643311 C-167.72604586 88.68322233 -165.19411046 80.96351703 -162.64620781 73.24894905 C-161.48338469 69.72758913 -160.32408297 66.20517253 -159.17419434 62.67956543 C-158.08590435 59.34339195 -156.98700412 56.01088614 -155.88068199 52.68065071 C-155.28332646 50.87403817 -154.69645631 49.06396885 -154.11006165 47.25376892 C-145.89463501 22.66569425 -130.86089181 2.07712277 -107.48095703 -9.85644531 C-73.83940628 -26.23743548 -30.37048369 -22.59794284 0 0 Z " fill="#FE8A6A" transform="translate(320.47265625,90.83984375)"/>
<path d="M0 0 C12.48025152 6.45538759 16.04975732 22.50558541 20.0625 34.875 C20.74720956 36.93945907 21.43346395 39.00340629 22.12109375 41.06689453 C24.02953541 46.81093447 25.91420715 52.56252998 27.79425049 58.31591797 C29.64541991 63.9720347 31.51134233 69.62327901 33.37591743 75.27498627 C37.12631346 86.64554881 40.86029373 98.02144401 44.58691216 109.39981842 C49.7946478 125.29957391 55.02748129 141.1909395 60.2734375 157.078125 C60.62886375 158.15464954 60.98429001 159.23117409 61.35048676 160.34032059 C64.55208088 170.03730091 67.75418295 179.73411321 70.95874023 189.43011475 C74.48364124 200.09616109 78.00347952 210.76381501 81.50864315 221.43636608 C83.0694984 226.18522874 84.64178572 230.92996861 86.23012543 235.66970825 C86.89481275 237.65732153 87.55443787 239.64652698 88.21182251 241.63656616 C88.96880148 243.92667446 89.73405321 246.21407734 90.51034546 248.49771118 C93.2832886 256.95976885 94.4988588 265.13270558 93 274 C92.34 274.99 91.68 275.98 91 277 C86.57624107 276.46587447 83.46768217 275.41163942 79.640625 273.1484375 C78.62081543 272.55216553 77.60100586 271.95589355 76.55029297 271.34155273 C75.46119629 270.69259033 74.37209961 270.04362793 73.25 269.375 C72.09448721 268.69571783 70.93838863 268.01743127 69.78173828 267.34008789 C67.37925109 265.93218406 64.97933759 264.52003309 62.58105469 263.10498047 C57.03727672 259.83942894 51.45336552 256.64345719 45.875 253.4375 C35.52369913 247.46918238 25.18631185 241.47743856 14.87890625 235.43359375 C10.83893784 233.06594342 6.78255681 230.72979247 2.71484375 228.41015625 C0.70567708 227.25269458 -1.3034394 226.09514577 -3.3125 224.9375 C-4.24416992 224.41333496 -5.17583984 223.88916992 -6.13574219 223.34912109 C-6.99458008 222.85105957 -7.85341797 222.35299805 -8.73828125 221.83984375 C-9.49149658 221.41050537 -10.24471191 220.98116699 -11.02075195 220.53881836 C-16.33945697 216.4036515 -17.72469147 209.35708887 -19.73828125 203.2109375 C-20.09533142 202.13686142 -20.45238159 201.06278534 -20.82025146 199.9561615 C-21.99026709 196.43104199 -23.1514876 192.90309397 -24.3125 189.375 C-25.12840743 186.91026217 -25.94473664 184.44566392 -26.76147461 181.98120117 C-32.13440861 165.74816187 -37.44408634 149.49453092 -42.70874023 133.22607422 C-45.96767275 123.16782748 -49.28320182 113.12999088 -52.64453125 103.10546875 C-53.03820389 101.93035233 -53.43187653 100.7552359 -53.83747864 99.54450989 C-55.7748845 93.76365519 -57.71762357 87.98467141 -59.66821289 82.20825195 C-60.37010611 80.11805223 -61.07185506 78.02780406 -61.7734375 75.9375 C-62.10080399 74.97406174 -62.42817047 74.01062347 -62.76545715 73.01799011 C-63.2090583 71.69230766 -63.2090583 71.69230766 -63.66162109 70.33984375 C-63.9213974 69.57019287 -64.18117371 68.80054199 -64.44882202 68.00756836 C-65 66 -65 66 -65 63 C-65.66 62.67 -66.32 62.34 -67 62 C-65.1286291 56.09178181 -63.2441738 50.18794896 -61.34814453 44.28759766 C-60.70662263 42.28513518 -60.06851986 40.28157365 -59.43408203 38.27685547 C-49.92190762 8.242352 -49.92190762 8.242352 -41 0 C-40.48566406 -0.5053125 -39.97132813 -1.010625 -39.44140625 -1.53125 C-28.77717961 -10.08163216 -11.30678449 -4.62431854 0 0 Z " fill="#FEC148" transform="translate(323,95)"/>
</svg>
