<?xml version="1.0" encoding="UTF-8"?>
<svg version="1.1" xmlns="http://www.w3.org/2000/svg" width="128" height="128">
<path d="M0 0 C4.71569533 0.55948928 5.68856609 1.82562347 8.6875 5.4375 C9.82311133 8.01691426 10.73053033 10.39187324 11.5546875 13.0625 C11.9157106 14.16624969 11.9157106 14.16624969 12.2840271 15.29229736 C13.05806182 17.66961161 13.81066511 20.05308201 14.5625 22.4375 C15.0894655 24.07433002 15.61779133 25.7107227 16.14746094 27.34667969 C16.93558312 29.78330594 17.72208257 32.22036508 18.5020752 34.65960693 C19.95278787 39.1951025 21.45033562 43.7081501 23.0234375 48.203125 C23.35359863 49.151875 23.68375977 50.100625 24.02392578 51.078125 C24.61030157 52.75294712 25.20437324 54.42510591 25.80810547 56.09375 C27.52526103 61.07644108 27.94997153 65.16420835 27.6875 70.4375 C28.3475 70.4375 29.0075 70.4375 29.6875 70.4375 C31.28836627 73.63923254 31.18667089 76.96327059 30.6875 80.4375 C28.89386089 83.2475346 27.66869065 84.94690468 24.6875 86.4375 C15.81069108 87.59376126 10.08886794 83.91927762 2.625 79.5 C1.4277394 78.80992008 0.22940714 78.12169623 -0.9699707 77.43530273 C-3.33554907 76.07830569 -5.69517912 74.71184883 -8.04980469 73.3359375 C-12.33886414 70.840298 -16.66660742 68.41747015 -21 66 C-23.10541219 64.81469082 -25.2089803 63.6261658 -27.3125 62.4375 C-27.48265625 63.11554688 -27.6528125 63.79359375 -27.828125 64.4921875 C-32.60318572 82.83045261 -32.60318572 82.83045261 -38.3125 86.4375 C-41.82080562 87.76496699 -43.29035767 87.44437176 -46.9375 86.3125 C-50.5955741 84.28023661 -51.81969296 83.30123586 -53.3125 79.4375 C-54.26154867 72.79415933 -51.98239357 66.46407647 -49.3125 60.4375 C-46.6875 57.4375 -46.6875 57.4375 -44.3125 55.4375 C-43.8175 54.4165625 -43.8175 54.4165625 -43.3125 53.375 C-41.39836156 49.66635678 -38.31952519 47.82460161 -34.5078125 46.359375 C-24.31603549 43.41896012 -16.6724584 45.57594957 -7.69384766 50.50341797 C-7.05108887 50.86193848 -6.40833008 51.22045898 -5.74609375 51.58984375 C-3.04094936 53.04551303 -1.21919382 53.81148567 1.6875 54.4375 C1.31351074 53.3637915 0.93952148 52.29008301 0.55419922 51.18383789 C-0.83661979 47.17145819 -2.19725129 43.14936614 -3.54931641 39.1237793 C-4.13691957 37.38794334 -4.73251062 35.65478898 -5.33642578 33.92456055 C-6.20675061 31.42651252 -7.04720388 28.91999892 -7.8828125 26.41015625 C-8.15562042 25.64727798 -8.42842834 24.88439972 -8.70950317 24.09840393 C-11.00564955 17.02956085 -9.73708906 11.70218325 -6.8125 5 C-4.74241726 1.46360865 -4.15319085 0.54853464 0 0 Z M-2.93847656 4.68554688 C-6.14492925 8.77394498 -7.67786833 13.15930048 -7.09204102 18.41552734 C-6.05266706 24.05784309 -4.34464799 29.49256506 -2.5625 34.9375 C-2.1651767 36.18990982 -2.1651767 36.18990982 -1.75982666 37.46762085 C2.28935883 50.26719459 2.28935883 50.26719459 11.52050781 59.59375 C15.39604621 61.54885757 19.25812764 63.4375 23.6875 63.4375 C22.26992352 56.50087928 20.32869096 49.8797202 18.09765625 43.1640625 C17.75246445 42.11850189 17.40727264 41.07294128 17.05162048 39.99569702 C16.32526439 37.80152517 15.59651257 35.60814507 14.86547852 33.41552734 C13.74748023 30.05492581 12.64399829 26.68977395 11.54101562 23.32421875 C10.83160998 21.1872074 10.12135339 19.05047831 9.41015625 16.9140625 C9.08193375 15.90783844 8.75371124 14.90161438 8.4155426 13.86489868 C8.10189255 12.93317841 7.78824249 12.00145813 7.46508789 11.04150391 C7.19354385 10.22259674 6.92199982 9.40368958 6.64222717 8.55996704 C5.59691579 6.23612101 4.73665882 4.95320635 2.6875 3.4375 C-1.12528202 3.03157897 -1.12528202 3.03157897 -2.93847656 4.68554688 Z M-37.3125 51.4375 C-37.3125 52.0975 -37.3125 52.7575 -37.3125 53.4375 C-36.54550781 53.80359375 -35.77851562 54.1696875 -34.98828125 54.546875 C-27.54842619 58.17607259 -20.30642253 62.06986036 -13.125 66.1875 C-12.2383667 66.69474609 -11.3517334 67.20199219 -10.43823242 67.72460938 C-5.92411813 70.31968581 -1.43968187 72.95493751 3.01171875 75.65625 C3.86161377 76.16575195 4.71150879 76.67525391 5.5871582 77.20019531 C7.19390193 78.1656044 8.79325505 79.14346287 10.38354492 80.13574219 C14.97663831 82.88314624 18.17525283 84.14987322 23.6875 83.4375 C26.23081238 81.89464369 26.23081238 81.89464369 27.6875 79.4375 C28.1967248 76.97379131 28.1967248 76.97379131 27.6875 74.4375 C25.7896407 72.62667978 25.7896407 72.62667978 23.140625 71.2734375 C22.15924561 70.71358154 21.17786621 70.15372559 20.16674805 69.5769043 C19.10109619 68.99465088 18.03544434 68.41239746 16.9375 67.8125 C15.85960205 67.20510986 14.7817041 66.59771973 13.67114258 65.97192383 C10.35321024 64.10858785 7.02144951 62.27198877 3.6875 60.4375 C1.70631329 59.33071127 -0.27419582 58.22270843 -2.25390625 57.11328125 C-5.65961747 55.21470899 -9.06721436 53.32000292 -12.48828125 51.44921875 C-13.15770752 51.08272217 -13.82713379 50.71622559 -14.5168457 50.33862305 C-21.55944283 46.8043979 -30.76500521 47.07250347 -37.3125 51.4375 Z M-45.375 61.375 C-48.62622625 66.51403504 -50.38489212 71.19334434 -50.1875 77.3125 C-49.22141394 81.1447278 -49.22141394 81.1447278 -46.3125 83.4375 C-42.85500051 84.10426878 -42.85500051 84.10426878 -39.3125 83.4375 C-34.37837507 79.49020006 -32.89476427 72.3457421 -31.3125 66.4375 C-31.3125 65.4475 -31.3125 64.4575 -31.3125 63.4375 C-32.55710783 62.76082002 -33.80846896 62.09655281 -35.0625 61.4375 C-35.75859375 61.06625 -36.4546875 60.695 -37.171875 60.3125 C-40.64245676 58.89386804 -42.60600371 58.77382166 -45.375 61.375 Z " fill="#F49334" transform="translate(75.3125,22.5625)"/>
<path d="M0 0 C4.71569533 0.55948928 5.68856609 1.82562347 8.6875 5.4375 C9.82311202 8.01691584 10.73053531 10.39187003 11.5546875 13.0625 C11.79536957 13.79837845 12.03605164 14.5342569 12.2840271 15.29243469 C13.05801549 17.669716 13.81060167 20.0531499 14.5625 22.4375 C15.08944812 24.07360339 15.61777394 25.70926369 16.14746094 27.34448242 C17.19054495 30.56810584 18.22662553 33.79386164 19.25878906 37.02099609 C20.46605074 40.77717821 21.72710208 44.51174749 23.0234375 48.23828125 C23.5186792 49.66817383 23.5186792 49.66817383 24.02392578 51.12695312 C24.61161339 52.81431702 25.20582065 54.49943176 25.80810547 56.18164062 C27.39542245 60.80770838 27.97195449 64.5435898 27.6875 69.4375 C22.52048728 67.45960077 17.8592043 64.86130177 13.0625 62.125 C11.77472656 61.4144043 11.77472656 61.4144043 10.4609375 60.68945312 C9.6359375 60.21830078 8.8109375 59.74714844 7.9609375 59.26171875 C7.21247559 58.83979248 6.46401367 58.41786621 5.69287109 57.9831543 C1.14759606 54.47985064 -0.31599711 49.09160232 -2.08203125 43.828125 C-2.32668625 43.10187927 -2.57134125 42.37563354 -2.82341003 41.62738037 C-3.33534154 40.09556052 -3.84360236 38.56250958 -4.34838867 37.02832031 C-5.12031312 34.70162694 -5.92208041 32.38659664 -6.72460938 30.0703125 C-9.95247729 20.46132547 -10.98921673 14.57164251 -6.8125 5 C-4.74241726 1.46360865 -4.15319085 0.54853464 0 0 Z M-2.93847656 4.68554688 C-6.14492925 8.77394498 -7.67786833 13.15930048 -7.09204102 18.41552734 C-6.05266706 24.05784309 -4.34464799 29.49256506 -2.5625 34.9375 C-2.1651767 36.18990982 -2.1651767 36.18990982 -1.75982666 37.46762085 C2.28935883 50.26719459 2.28935883 50.26719459 11.52050781 59.59375 C15.39604621 61.54885757 19.25812764 63.4375 23.6875 63.4375 C22.26992352 56.50087928 20.32869096 49.8797202 18.09765625 43.1640625 C17.75246445 42.11850189 17.40727264 41.07294128 17.05162048 39.99569702 C16.32526439 37.80152517 15.59651257 35.60814507 14.86547852 33.41552734 C13.74748023 30.05492581 12.64399829 26.68977395 11.54101562 23.32421875 C10.83160998 21.1872074 10.12135339 19.05047831 9.41015625 16.9140625 C9.08193375 15.90783844 8.75371124 14.90161438 8.4155426 13.86489868 C8.10189255 12.93317841 7.78824249 12.00145813 7.46508789 11.04150391 C7.19354385 10.22259674 6.92199982 9.40368958 6.64222717 8.55996704 C5.59691579 6.23612101 4.73665882 4.95320635 2.6875 3.4375 C-1.12528202 3.03157897 -1.12528202 3.03157897 -2.93847656 4.68554688 Z " fill="#F2684E" transform="translate(75.3125,22.5625)"/>
<path d="M0 0 C0 0.66 0 1.32 0 2 C-1.175625 2.0928125 -1.175625 2.0928125 -2.375 2.1875 C-3.24125 2.455625 -4.1075 2.72375 -5 3 C-6.08756436 5.12597379 -6.08756436 5.12597379 -7 8 C-7.21987579 8.63095581 -7.43975159 9.26191162 -7.66629028 9.9119873 C-8.45746571 12.19259765 -9.23162836 14.47854898 -10.00390625 16.765625 C-10.58519619 18.47659317 -11.16657911 20.18752975 -11.74804688 21.8984375 C-12.65995071 24.58651775 -13.57092217 27.27490578 -14.48022461 29.96386719 C-15.36054966 32.565333 -16.24447372 35.16555328 -17.12890625 37.765625 C-17.40182999 38.57598206 -17.67475372 39.38633911 -17.95594788 40.22125244 C-19.88660883 45.88660883 -19.88660883 45.88660883 -21 47 C-23.03783596 47.29829193 -25.08057396 47.56335013 -27.125 47.8125 C-35.15991678 48.99927655 -39.79821012 51.73787525 -46 57 C-44.75171486 50.85148338 -43.12781125 44.95464911 -41.1015625 39.01953125 C-40.68721451 37.79480354 -40.68721451 37.79480354 -40.26449585 36.54533386 C-39.68370535 34.834469 -39.10039249 33.12445847 -38.51464844 31.4152832 C-37.62483234 28.81200949 -36.74961866 26.20411601 -35.875 23.59570312 C-35.30557028 21.92417817 -34.73528688 20.25294375 -34.1640625 18.58203125 C-33.90662262 17.81002884 -33.64918274 17.03802643 -33.38394165 16.24263 C-30.86882329 8.98747319 -27.85801612 3.55772292 -20.84765625 -0.09375 C-14.48842624 -2.11753788 -6.3131703 -2.1043901 0 0 Z M-23.8125 5.6875 C-30.38342255 12.63390384 -32.44721495 23.07523576 -35.25 32 C-35.71293969 33.45722263 -36.17647647 34.91425571 -36.640625 36.37109375 C-37.76731153 39.91190285 -38.88588727 43.4552116 -40 47 C-38.865625 46.690625 -37.73125 46.38125 -36.5625 46.0625 C-32.10974543 44.84811239 -27.57911621 44.45933351 -23 44 C-21.0002153 38.36040961 -19.00654838 32.71870878 -17.01855469 27.07495117 C-16.34120296 25.15475969 -15.66217438 23.23515888 -14.98144531 21.31616211 C-14.00405961 18.55996291 -13.03269645 15.80170549 -12.0625 13.04296875 C-11.75626709 12.18350143 -11.45003418 11.32403412 -11.13452148 10.43852234 C-10.85423096 9.63791885 -10.57394043 8.83731537 -10.28515625 8.01245117 C-10.03644775 7.3085173 -9.78773926 6.60458344 -9.53149414 5.87931824 C-8.86393083 3.8443758 -8.86393083 3.8443758 -9 1 C-14.35720833 1 -19.25128939 2.95077363 -23.8125 5.6875 Z " fill="#F0595B" transform="translate(75,20)"/>
<path d="M0 0 C1.60546875 1.421875 1.60546875 1.421875 3 3 C4.64605826 4.03357147 6.30963442 5.04060332 8 6 C2.91498529 26.26301317 2.91498529 26.26301317 -3 30 C-6.50830562 31.32746699 -7.97785767 31.00687176 -11.625 29.875 C-15.2830741 27.84273661 -16.50719296 26.86373586 -18 23 C-18.95202852 16.33580033 -16.66721076 10.0450928 -14 4 C-10.36589897 -0.56858416 -5.56793583 -1.15737992 0 0 Z M-10.0625 4.9375 C-13.31372625 10.07653504 -15.07239212 14.75584434 -14.875 20.875 C-13.90891394 24.7072278 -13.90891394 24.7072278 -11 27 C-7.54250051 27.66676878 -7.54250051 27.66676878 -4 27 C0.93412493 23.05270006 2.41773573 15.9082421 4 10 C4 9.01 4 8.02 4 7 C2.75539217 6.32332002 1.50403104 5.65905281 0.25 5 C-0.44609375 4.62875 -1.1421875 4.2575 -1.859375 3.875 C-5.32995676 2.45636804 -7.29350371 2.33632166 -10.0625 4.9375 Z " fill="#F59E2D" transform="translate(40,79)"/>
</svg>
